<?xml version="1.0" encoding="iso-8859-1"?>
<!-- Generator: Adobe Illustrator 19.0.0, SVG Export Plug-In . SVG Version: 6.00 Build 0)  -->
<svg version="1.1" id="Capa_1" xmlns="http://www.w3.org/2000/svg" xmlns:xlink="http://www.w3.org/1999/xlink" x="0px" y="0px"
	 viewBox="0 0 512 512" style="enable-background:new 0 0 512 512;" xml:space="preserve">
<rect x="381.759" y="188.94" style="fill:#4AA5D3;" width="65.958" height="301.4"/>
<rect x="381.759" y="188.94" style="fill:#2594BF;" width="36.03" height="301.4"/>
<g>
	<path style="fill:#66CDED;" d="M451.187,196.773h-61.598c-4.325,0-7.832-3.506-7.832-7.832s3.506-7.832,7.832-7.832h61.598
		c4.325,0,7.832,3.506,7.832,7.832S455.512,196.773,451.187,196.773z"/>
	<path style="fill:#66CDED;" d="M451.187,454.776h-61.598c-4.325,0-7.832-3.506-7.832-7.832s3.506-7.832,7.832-7.832h61.598
		c4.325,0,7.832,3.506,7.832,7.832S455.512,454.776,451.187,454.776z"/>
	<path style="fill:#66CDED;" d="M451.187,417.918h-61.598c-4.325,0-7.832-3.506-7.832-7.832s3.506-7.832,7.832-7.832h61.598
		c4.325,0,7.832,3.506,7.832,7.832C459.018,414.412,455.512,417.918,451.187,417.918z"/>
	<path style="fill:#66CDED;" d="M451.187,381.061h-61.598c-4.325,0-7.832-3.506-7.832-7.832s3.506-7.832,7.832-7.832h61.598
		c4.325,0,7.832,3.506,7.832,7.832S455.512,381.061,451.187,381.061z"/>
	<path style="fill:#66CDED;" d="M451.187,344.203h-61.598c-4.325,0-7.832-3.506-7.832-7.832s3.506-7.832,7.832-7.832h61.598
		c4.325,0,7.832,3.506,7.832,7.832S455.512,344.203,451.187,344.203z"/>
	<path style="fill:#66CDED;" d="M451.187,307.345h-61.598c-4.325,0-7.832-3.506-7.832-7.832s3.506-7.832,7.832-7.832h61.598
		c4.325,0,7.832,3.506,7.832,7.832S455.512,307.345,451.187,307.345z"/>
	<path style="fill:#66CDED;" d="M451.187,270.488h-61.598c-4.325,0-7.832-3.506-7.832-7.832s3.506-7.832,7.832-7.832h61.598
		c4.325,0,7.832,3.506,7.832,7.832S455.512,270.488,451.187,270.488z"/>
	<path style="fill:#66CDED;" d="M451.187,233.63h-61.598c-4.325,0-7.832-3.506-7.832-7.832s3.506-7.832,7.832-7.832h61.598
		c4.325,0,7.832,3.506,7.832,7.832S455.512,233.63,451.187,233.63z"/>
</g>
<path style="fill:#97BC31;" d="M200.58,431.783c-8.703,2.142-16.825,7.425-22.049,14.584c-1.945,2.666-5.866,3.005-8.25,0.723
	c-20.087-19.217-52.24-17.228-69.846,4.268c-2.391,2.919-6.175,4.787-10.783,4.787c-14.418,0-26.106,11.689-26.106,26.108
	c0,0.52,0.02,7.301,0.049,7.814h136.986L200.58,431.783L200.58,431.783z"/>
<path style="fill:#76A314;" d="M120.169,463.613c4.053-0.708,7.702-2.996,9.712-6.584c5.069-9.047,13.043-16.394,22.909-20.59
	c-18.527-6.352-39.483-0.797-52.356,14.919c-2.385,2.912-6.164,4.787-10.783,4.787c-14.418,0-26.106,11.689-26.106,26.108
	c0,0.52,0.02,7.301,0.05,7.814h34.968C98.189,477.352,107.165,465.9,120.169,463.613z"/>
<path style="fill:#51506D;" d="M378.477,1.435L204.91,134.505c-3.385,2.595-5.374,6.648-5.374,10.95V490.34h190.053V7.037
	C389.589,1.235,383.042-2.065,378.477,1.435z"/>
<path style="fill:#474763;" d="M269.138,143.903l120.451-92.347V7.037c0-5.802-6.547-9.102-11.112-5.602L204.91,134.505
	c-3.385,2.595-5.374,6.648-5.374,10.95V490.34h64.228V154.853C263.763,150.551,265.753,146.498,269.138,143.903z"/>
<path style="fill:#676789;" d="M378.477,1.435L204.91,134.505c-2.87,2.2-4.721,5.452-5.223,9.011h189.902V7.037
	C389.589,1.235,383.042-2.065,378.477,1.435z"/>
<path style="fill:#5C5C7F;" d="M378.477,1.435c-145.741,111.771-186.082,140.461-178.79,142.08h69.956l119.946-91.959V7.037
	C389.589,1.235,383.042-2.065,378.477,1.435z"/>
<g>
	<path style="fill:#66CDED;" d="M332.258,210.957c-0.006-0.129-0.028-0.254-0.038-0.383c-0.018-0.24-0.041-0.477-0.07-0.713
		c-0.027-0.212-0.059-0.421-0.096-0.629c-0.049-0.286-0.106-0.567-0.172-0.847c-0.03-0.122-0.06-0.242-0.094-0.362
		c-1.598-6.032-7.078-10.484-13.612-10.484h-0.398h-45.373c-7.235,0-61.854,0-72.868,0v28.198c11.015,0,65.633,0,72.868,0h25.339
		h20.433c7.786,0,14.098-6.312,14.098-14.099c0-0.118-0.015-0.232-0.018-0.349C332.253,211.178,332.263,211.069,332.258,210.957z"/>
	<path style="fill:#66CDED;" d="M332.22,277.339c-0.018-0.24-0.041-0.477-0.07-0.713c-0.027-0.211-0.059-0.421-0.096-0.629
		c-0.049-0.286-0.106-0.567-0.172-0.847c-0.03-0.122-0.06-0.242-0.094-0.362c-1.598-6.032-7.078-10.484-13.612-10.484h-0.398
		h-45.373c-7.235,0-61.854,0-72.868,0v28.198c26.367,0,91.638,0,118.64,0c7.786,0,14.098-6.312,14.098-14.099
		c0-0.118-0.015-0.232-0.018-0.349c-0.003-0.111,0.007-0.22,0.001-0.332C332.252,277.592,332.23,277.468,332.22,277.339z"/>
	<path style="fill:#66CDED;" d="M318.176,359.266c8.714,0,15.404-7.865,13.878-16.505c-1.153-6.664-6.943-11.693-13.878-11.693
		c-26.715,0-91.933,0-118.64,0v28.198C225.902,359.266,291.174,359.266,318.176,359.266z"/>
	<path style="fill:#66CDED;" d="M272.404,426.031h25.339h20.433c9.399,0,16.017-8.995,13.612-17.714
		c-1.598-6.032-7.078-10.484-13.612-10.484h-0.398c-26.237,0-93.84,0-118.242,0v28.198
		C210.55,426.031,265.169,426.031,272.404,426.031z"/>
</g>
<g>
	<rect x="242.349" y="197.54" style="fill:#56BAE2;" width="42.818" height="28.2"/>
	<rect x="242.349" y="264.3" style="fill:#56BAE2;" width="42.818" height="28.2"/>
	<rect x="242.349" y="331.07" style="fill:#56BAE2;" width="42.818" height="28.2"/>
	<rect x="242.349" y="397.83" style="fill:#56BAE2;" width="42.818" height="28.2"/>
</g>
<g>
	<rect x="242.349" y="197.54" style="fill:#4AA5D3;" width="21.409" height="28.2"/>
	<rect x="242.349" y="264.3" style="fill:#4AA5D3;" width="21.409" height="28.2"/>
	<rect x="242.349" y="331.07" style="fill:#4AA5D3;" width="21.409" height="28.2"/>
	<rect x="242.349" y="397.83" style="fill:#4AA5D3;" width="21.409" height="28.2"/>
</g>
<path style="fill:#E6E6E6;" d="M457.763,483.802c-0.211,0-8.612,0-8.354,0c-48.758,0-326.752,0-395.175,0
	c-6.439,0-12.14,4.376-13.706,10.845C38.405,503.617,45.23,512,54.234,512c33.816,0,387.579,0,374.743,0c10.395,0,18.344,0,28.787,0
	c7.786,0,14.098-6.312,14.098-14.099C471.861,490.258,465.649,483.802,457.763,483.802z"/>
<path style="fill:#CCCCCC;" d="M88.655,494.287c1.599-6.032,7.079-10.485,13.614-10.485c-34.307,0-13.358,0-48.035,0
	c-6.571,0-12.175,4.51-13.706,10.845C38.402,503.615,45.231,512,54.234,512c20.68,0,27.57,0,48.035,0
	C93.12,512,86.241,503.335,88.655,494.287z"/>
<g>
</g>
<g>
</g>
<g>
</g>
<g>
</g>
<g>
</g>
<g>
</g>
<g>
</g>
<g>
</g>
<g>
</g>
<g>
</g>
<g>
</g>
<g>
</g>
<g>
</g>
<g>
</g>
<g>
</g>
</svg>
