<?xml version="1.0" encoding="iso-8859-1"?>
<!-- Generator: Adobe Illustrator 19.0.0, SVG Export Plug-In . SVG Version: 6.00 Build 0)  -->
<svg version="1.1" id="Capa_1" xmlns="http://www.w3.org/2000/svg" xmlns:xlink="http://www.w3.org/1999/xlink" x="0px" y="0px"
	 viewBox="0 0 512 512" style="enable-background:new 0 0 512 512;" xml:space="preserve">
<ellipse style="fill:#FF9D00;" cx="258.595" cy="316.68" rx="242.921" ry="186.926"/>
<polyline style="fill:#E52E33;" points="177.044,235.495 177.044,8.401 335.196,8.401 335.196,317.11 335.196,503.6 288.538,503.6 
	229.227,503.6 177.044,503.6 "/>
<polygon style="fill:#F9414F;" points="177.044,8.401 335.196,173.355 335.196,8.401 "/>
<rect x="414.761" y="393.652" style="fill:#E52E33;" width="89.635" height="109.953"/>
<polyline style="fill:#4C3333;" points="300.981,503.6 335.196,503.6 446.69,503.6 446.69,262.49 300.981,262.49 "/>
<rect x="7.604" y="324.314" style="fill:#7F111C;" width="89.321" height="179.291"/>
<polygon style="fill:#AF2331;" points="7.604,324.315 71.074,407.336 71.074,324.315 "/>
<polyline style="fill:#634B4B;" points="446.69,388.935 446.69,262.49 300.981,262.49 "/>
<rect x="71.072" y="129.754" style="fill:#4C3333;" width="158.152" height="373.841"/>
<polygon style="fill:#634B4B;" points="71.074,129.755 229.229,269.661 229.229,129.755 "/>
<path d="M504.396,386.046h-50.102v-62.132c0-4.199-3.405-7.604-7.604-7.604l0,0c-4.199,0-7.604,3.405-7.604,7.604v172.083H335.192
	h-26.607v-33.911v-22.811v-43.722v-22.811v-43.721v-22.811v-36.117h130.501v18.333c0,4.199,3.405,7.604,7.604,7.604l0,0
	c4.199,0,7.604-3.405,7.604-7.604V262.49c0-4.199-3.405-7.604-7.604-7.604H342.796V8.4c0-4.199-3.405-7.604-7.604-7.604H177.04
	c-4.199,0-7.604,3.405-7.604,7.604v113.752H71.075c-4.199,0-7.604,3.405-7.604,7.604V316.71H7.604c-4.199,0-7.604,3.405-7.604,7.604
	V503.6c0,4.199,3.405,7.604,7.604,7.604h63.471h158.154c0.007,0,0.013-0.001,0.019-0.001h71.733h34.211h111.479
	c0.006,0,0.013,0.001,0.019,0.001h57.706c4.199,0,7.604-3.405,7.604-7.604V393.65C512,389.451,508.595,386.046,504.396,386.046z
	 M184.644,16.004h142.943v238.883h-26.607c-4.2,0-7.604,3.405-7.604,7.604v43.721v22.811v43.721v22.811v43.722v22.811v33.911
	h-56.544V129.755c0-4.199-3.404-7.604-7.604-7.604h-10.367v-15.207c0-4.199-3.404-7.604-7.604-7.604c-4.2,0-7.604,3.405-7.604,7.604
	v15.207h-19.01V16.004z M78.679,324.314v-23.959h142.946v35.99H78.679V324.314z M221.625,233.951H78.679v-35.99h142.946V233.951z
	 M221.625,249.158v35.989H78.679v-35.989L221.625,249.158L221.625,249.158z M78.679,402.75h38.929c4.199,0,7.604-3.405,7.604-7.604
	l0,0c0-4.199-3.405-7.604-7.604-7.604H78.679v-35.99h142.946v35.99h-68.531c-4.199,0-7.604,3.405-7.604,7.604l0,0
	c0,4.199,3.405,7.604,7.604,7.604h68.531v35.99H78.679V402.75z M221.625,137.359v45.394H78.679v-45.394H221.625z M15.208,331.918
	h48.263v164.078H15.208V331.918z M78.679,453.948h142.946v42.048H177.04v0.001H78.679V453.948z M496.792,495.996h-42.497v-94.743
	h42.497V495.996z"/>
<path d="M300.981,203.562c4.2,0,7.604-3.405,7.604-7.604v-22.811c0-4.199-3.404-7.604-7.604-7.604s-7.604,3.405-7.604,7.604v22.811
	C293.377,200.159,296.782,203.562,300.981,203.562z"/>
<path d="M256.12,203.562c4.2,0,7.604-3.405,7.604-7.604v-22.811c0-4.199-3.404-7.604-7.604-7.604s-7.604,3.405-7.604,7.604v22.811
	C248.516,200.159,251.92,203.562,256.12,203.562z"/>
<path d="M300.981,137.359c4.2,0,7.604-3.405,7.604-7.604v-22.811c0-4.199-3.404-7.604-7.604-7.604s-7.604,3.405-7.604,7.604v22.811
	C293.377,133.954,296.782,137.359,300.981,137.359z"/>
<path d="M256.12,137.359c4.2,0,7.604-3.405,7.604-7.604v-22.811c0-4.199-3.404-7.604-7.604-7.604s-7.604,3.405-7.604,7.604v22.811
	C248.516,133.954,251.92,137.359,256.12,137.359z"/>
<path d="M211.258,71.156c4.2,0,7.604-3.405,7.604-7.604V40.741c0-4.199-3.404-7.604-7.604-7.604c-4.2,0-7.604,3.405-7.604,7.604
	v22.811C203.654,67.751,207.059,71.156,211.258,71.156z"/>
<path d="M300.981,71.156c4.2,0,7.604-3.405,7.604-7.604V40.741c0-4.199-3.404-7.604-7.604-7.604s-7.604,3.405-7.604,7.604v22.811
	C293.377,67.751,296.782,71.156,300.981,71.156z"/>
<path d="M256.12,71.156c4.2,0,7.604-3.405,7.604-7.604V40.741c0-4.199-3.404-7.604-7.604-7.604s-7.604,3.405-7.604,7.604v22.811
	C248.516,67.751,251.92,71.156,256.12,71.156z"/>
<path d="M293.961,242.586c1.215,2.868,4.073,4.766,7.202,4.689c3.188-0.078,6.025-2.187,7.034-5.211
	c2.216-6.651-5.39-12.509-11.279-8.803C293.841,235.197,292.547,239.224,293.961,242.586z"/>
<path d="M256.12,270.094c4.2,0,7.604-3.405,7.604-7.604v-22.811c0-4.199-3.404-7.604-7.604-7.604s-7.604,3.405-7.604,7.604v22.811
	C248.516,266.69,251.92,270.094,256.12,270.094z"/>
<path d="M256.12,469.69c4.2,0,7.604-3.405,7.604-7.604v-22.811c0-4.199-3.404-7.604-7.604-7.604s-7.604,3.405-7.604,7.604v22.811
	C248.516,466.285,251.92,469.69,256.12,469.69z"/>
<path d="M256.12,403.158c4.2,0,7.604-3.405,7.604-7.604v-22.811c0-4.199-3.404-7.604-7.604-7.604s-7.604,3.405-7.604,7.604v22.811
	C248.516,399.753,251.92,403.158,256.12,403.158z"/>
<path d="M256.12,336.626c4.2,0,7.604-3.405,7.604-7.604v-22.811c0-4.199-3.404-7.604-7.604-7.604s-7.604,3.405-7.604,7.604v22.811
	C248.516,333.222,251.92,336.626,256.12,336.626z"/>
<path d="M415.897,429.355h-84.123c-4.2,0-7.604,3.405-7.604,7.604c0,4.199,3.404,7.604,7.604,7.604h84.123
	c4.2,0,7.604-3.405,7.604-7.604C423.501,432.76,420.098,429.355,415.897,429.355z"/>
<path d="M415.897,465.299h-84.123c-4.2,0-7.604,3.405-7.604,7.604c0,4.199,3.404,7.604,7.604,7.604h84.123
	c4.2,0,7.604-3.405,7.604-7.604C423.501,468.703,420.098,465.299,415.897,465.299z"/>
<path d="M415.897,393.413h-84.123c-4.2,0-7.604,3.405-7.604,7.604c0,4.199,3.404,7.604,7.604,7.604h84.123
	c4.2,0,7.604-3.405,7.604-7.604C423.501,396.817,420.098,393.413,415.897,393.413z"/>
<path d="M415.897,285.583h-84.123c-4.2,0-7.604,3.405-7.604,7.604c0,4.199,3.404,7.604,7.604,7.604h84.123
	c4.2,0,7.604-3.405,7.604-7.604C423.501,288.988,420.098,285.583,415.897,285.583z"/>
<path d="M415.897,357.469h-84.123c-4.2,0-7.604,3.405-7.604,7.604c0,4.199,3.404,7.604,7.604,7.604h84.123
	c4.2,0,7.604-3.405,7.604-7.604C423.501,360.874,420.098,357.469,415.897,357.469z"/>
<path d="M415.897,321.527h-84.123c-4.2,0-7.604,3.405-7.604,7.604c0,4.199,3.404,7.604,7.604,7.604h84.123
	c4.2,0,7.604-3.405,7.604-7.604C423.501,324.931,420.098,321.527,415.897,321.527z"/>
<path d="M39.339,344.004c-4.2,0-7.604,3.405-7.604,7.604v19.769c0,4.199,3.404,7.604,7.604,7.604s7.604-3.405,7.604-7.604v-19.769
	C46.943,347.409,43.538,344.004,39.339,344.004z"/>
<path d="M39.339,396.468c-4.2,0-7.604,3.405-7.604,7.604v19.769c0,4.199,3.404,7.604,7.604,7.604s7.604-3.405,7.604-7.604v-19.769
	C46.943,399.873,43.538,396.468,39.339,396.468z"/>
<path d="M39.339,448.934c-4.2,0-7.604,3.405-7.604,7.604v19.769c0,4.199,3.404,7.604,7.604,7.604s7.604-3.405,7.604-7.604v-19.769
	C46.943,452.338,43.538,448.934,39.339,448.934z"/>
<path d="M475.544,456.23c4.2,0,7.604-3.405,7.604-7.604v-21.52c0-4.199-3.404-7.604-7.604-7.604s-7.604,3.405-7.604,7.604v21.52
	C467.94,452.825,471.343,456.23,475.544,456.23z"/>
<path d="M360.488,162.501h92.763c4.2,0,7.604-3.405,7.604-7.604s-3.404-7.604-7.604-7.604h-92.763c-4.2,0-7.604,3.405-7.604,7.604
	S356.287,162.501,360.488,162.501z"/>
<path d="M407.629,186.832c0,4.199,3.404,7.604,7.604,7.604h66.912c4.2,0,7.604-3.405,7.604-7.604c0-4.199-3.404-7.604-7.604-7.604
	h-66.912C411.033,179.228,407.629,182.633,407.629,186.832z"/>
<path d="M70.029,72.779h66.912c4.2,0,7.604-3.405,7.604-7.604c0-4.199-3.404-7.604-7.604-7.604H70.029
	c-4.2,0-7.604,3.405-7.604,7.604C62.425,69.374,65.83,72.779,70.029,72.779z"/>
<path d="M32.012,98.124h66.912c4.2,0,7.604-3.405,7.604-7.604c0-4.199-3.404-7.604-7.604-7.604H32.012
	c-4.2,0-7.604,3.405-7.604,7.604C24.408,94.719,27.812,98.124,32.012,98.124z"/>
<g>
</g>
<g>
</g>
<g>
</g>
<g>
</g>
<g>
</g>
<g>
</g>
<g>
</g>
<g>
</g>
<g>
</g>
<g>
</g>
<g>
</g>
<g>
</g>
<g>
</g>
<g>
</g>
<g>
</g>
</svg>
